<svg xmlns="http://www.w3.org/2000/svg" width="64.008" height="64.008" viewBox="0 0 64.008 64.008">
  <path id="facebook-square-brands" d="M57.15,32H6.858A6.858,6.858,0,0,0,0,38.858V89.15a6.858,6.858,0,0,0,6.858,6.858H26.467V74.246h-9V64h9V56.2c0-8.88,5.286-13.784,13.383-13.784a54.53,54.53,0,0,1,7.932.692v8.715H43.315c-4.4,0-5.775,2.732-5.775,5.534V64h9.827L45.8,74.246H37.54V96.008H57.15a6.858,6.858,0,0,0,6.858-6.858V38.858A6.858,6.858,0,0,0,57.15,32Z" transform="translate(0 -32)" fill="#3b5998"/>
</svg>
