<svg xmlns="http://www.w3.org/2000/svg" width="63.984" height="63.984" viewBox="0 0 63.984 63.984">
  <g id="グループ_82" data-name="グループ 82" transform="translate(-166 -454.016)">
    <g id="search" transform="translate(166 454.016)">
      <g id="グループ_83" data-name="グループ 83">
        <path id="パス_2" data-name="パス 2" d="M14.18,159.655l-2.227,8.314-8.14.172a32.048,32.048,0,0,1-.236-29.874h0l7.247,1.329L14,146.8a19.093,19.093,0,0,0,.179,12.855Z" transform="translate(0 -120.989)" fill="#fbbb00"/>
        <path id="パス_3" data-name="パス 3" d="M292.358,208.176a31.98,31.98,0,0,1-11.4,30.925l0,0-9.128-.466-1.292-8.065a19.067,19.067,0,0,0,8.2-9.737H261.628V208.176h30.73Z" transform="translate(-228.932 -182.16)" fill="#518ef8"/>
        <path id="パス_4" data-name="パス 4" d="M78.715,327.681l0,0A32,32,0,0,1,30.509,317.9l10.368-8.487a19.027,19.027,0,0,0,27.418,9.742Z" transform="translate(-26.696 -270.742)" fill="#28b446"/>
        <path id="パス_5" data-name="パス 5" d="M77.46,7.365,67.1,15.85a19.024,19.024,0,0,0-28.048,9.962L28.626,17.279h0A32,32,0,0,1,77.46,7.365Z" transform="translate(-25.047)" fill="#f14336"/>
      </g>
    </g>
  </g>
</svg>
