<svg xmlns="http://www.w3.org/2000/svg" width="64.041" height="64.027" viewBox="0 0 64.041 64.027">
  <path id="instagram-brands" d="M31.953,47.423A16.416,16.416,0,1,0,48.368,63.838,16.39,16.39,0,0,0,31.953,47.423Zm0,27.088A10.672,10.672,0,1,1,42.625,63.838,10.692,10.692,0,0,1,31.953,74.51ZM52.868,46.751a3.829,3.829,0,1,1-3.829-3.829A3.82,3.82,0,0,1,52.868,46.751Zm10.872,3.886c-.243-5.129-1.414-9.672-5.172-13.415s-8.286-4.915-13.415-5.172c-5.286-.3-21.13-.3-26.416,0-5.115.243-9.658,1.414-13.415,5.158S.407,45.494.15,50.623c-.3,5.286-.3,21.13,0,26.416.243,5.129,1.414,9.672,5.172,13.415s8.286,4.915,13.415,5.172c5.286.3,21.13.3,26.416,0,5.129-.243,9.672-1.414,13.415-5.172s4.915-8.286,5.172-13.415C64.041,71.753,64.041,55.923,63.741,50.637ZM56.912,82.711A10.8,10.8,0,0,1,50.825,88.8c-4.215,1.672-14.215,1.286-18.873,1.286S17.28,90.455,13.08,88.8a10.8,10.8,0,0,1-6.086-6.086C5.322,78.5,5.708,68.5,5.708,63.838S5.336,49.166,6.993,44.965a10.8,10.8,0,0,1,6.086-6.086c4.215-1.672,14.215-1.286,18.873-1.286s14.673-.371,18.873,1.286a10.8,10.8,0,0,1,6.086,6.086C58.583,49.18,58.2,59.181,58.2,63.838S58.583,78.511,56.912,82.711Z" transform="translate(0.075 -31.825)"/>
</svg>
