<svg id="Twitter_Social_Icon_Rounded_Square_Color" xmlns="http://www.w3.org/2000/svg" width="63.998" height="63.998" viewBox="0 0 63.998 63.998">
  <g id="Dark_Blue">
    <path id="パス_7" data-name="パス 7" d="M56,64H8a8,8,0,0,1-8-8V8A8,8,0,0,1,8,0H56a8,8,0,0,1,8,8V56A8,8,0,0,1,56,64Z" fill="#1da1f2"/>
  </g>
  <g id="Logo__x2014__FIXED" transform="translate(12.016 15.744)">
    <path id="パス_8" data-name="パス 8" d="M87.66,130.911c15.088,0,23.343-12.512,23.343-23.343,0-.352,0-.7-.016-1.056a16.714,16.714,0,0,0,4.1-4.256,16.628,16.628,0,0,1-4.72,1.3,8.254,8.254,0,0,0,3.616-4.544,16.32,16.32,0,0,1-5.216,1.984,8.206,8.206,0,0,0-14.192,5.616,9.068,9.068,0,0,0,.208,1.872A23.3,23.3,0,0,1,77.868,99.9a8.237,8.237,0,0,0,2.544,10.96A8.3,8.3,0,0,1,76.7,109.84v.112A8.222,8.222,0,0,0,83.276,118a8.252,8.252,0,0,1-3.7.144,8.2,8.2,0,0,0,7.664,5.7,16.455,16.455,0,0,1-10.192,3.52,15.79,15.79,0,0,1-1.952-.112,23.337,23.337,0,0,0,12.56,3.664" transform="translate(-75.1 -98.4)" fill="#fff"/>
  </g>
</svg>
